# xmcd CD database file
#
# Track frame offsets:
#	150
#	13870
#	31572
#	50003
#	63510
#	80222
#	94928
#	109617
#	123332
#	140361
#
# Disc length: 2070 seconds
#
# Revision: 0
# Processed by: cddbd v1.5.1PL0 Copyright (c) Steve Scherf et al.
# Submitted via: CDex 1.50
#
DISCID=8308140a
DTITLE=Andrew Dean - Wide Open Dreams
DYEAR=1900
DGENRE=Country
TTITLE0=Andrew Dean =Everybody Loves A D.J
TTITLE1=Andrew Dean =Goodbye Memory
TTITLE2=Andrew Dean =A Dozen Red Roses
TTITLE3=Andrew Dean =Wide Open Dreams 
TTITLE4=Andrew Dean =Etched In Time
TTITLE5=Andrew Dean =Country Music
TTITLE6=Andrew Dean =The Price
TTITLE7=Andrew Dean =Makin' Good Time
TTITLE8=Andrew Dean =She Don't Live Here Anymore
TTITLE9=Andrew Dean =Wishin' I Was Fishin'
EXTD=
EXTT0=
EXTT1=
EXTT2=
EXTT3=
EXTT4=
EXTT5=
EXTT6=
EXTT7=
EXTT8=
EXTT9=
PLAYORDER=
